# xmcd
#
# Track frame offsets:
#	151
#	14077
#	30250
#	43579
#	53303
#	67308
#	83258
#	95759
#	110436
#	124735
#
# Disc length: 1878 seconds
#
# Revision: 1
# Processed by: cddbd v1.5.2PL0 Copyright (c) Steve Scherf et al.
# Submitted via: audiograbber 1.83.01
#
DISCID=7807540a
DTITLE=Richard Draime - Two Step Therapy Richard Draime
DYEAR=1900
DGENRE=
TTITLE0=Two Step Therapy
TTITLE1=I Tried
TTITLE2=I Never Knew I Was Lost
TTITLE3=All The Good Ones
TTITLE4=I Pray There´s A Honky Tonk In Heaven
TTITLE5=I Langhed Til I Cried
TTITLE6=In My View
TTITLE7=Politically Incorrect Redneck
TTITLE8=Ammesia
TTITLE9=Learing How To Love
EXTD=
EXTT0=
EXTT1=
EXTT2=
EXTT3=
EXTT4=
EXTT5=
EXTT6=
EXTT7=
EXTT8=
EXTT9=
PLAYORDER=
